<svg width="8" height="16" viewBox="0 0 8 16" fill="none" xmlns="http://www.w3.org/2000/svg">
<path d="M2.27328 8.93636C2.21928 8.93636 1.03128 8.93636 0.491281 8.93636C0.203281 8.93636 0.113281 8.82836 0.113281 8.55836C0.113281 7.83836 0.113281 7.10036 0.113281 6.38036C0.113281 6.09236 0.221281 6.00236 0.491281 6.00236H2.27328C2.27328 5.94836 2.27328 4.90436 2.27328 4.41836C2.27328 3.69836 2.39928 3.01436 2.75928 2.38436C3.13728 1.73636 3.67728 1.30436 4.36128 1.05236C4.81128 0.890359 5.26128 0.818359 5.74728 0.818359H7.51128C7.76328 0.818359 7.87128 0.926359 7.87128 1.17836V3.23036C7.87128 3.48236 7.76328 3.59036 7.51128 3.59036C7.02528 3.59036 6.53928 3.59036 6.05328 3.60836C5.56728 3.60836 5.31528 3.84236 5.31528 4.34636C5.29728 4.88636 5.31528 5.40836 5.31528 5.96636H7.40328C7.69128 5.96636 7.79928 6.07436 7.79928 6.36236V8.54036C7.79928 8.82836 7.70928 8.91836 7.40328 8.91836C6.75528 8.91836 5.36928 8.91836 5.31528 8.91836V14.7864C5.31528 15.0924 5.22528 15.2004 4.90128 15.2004C4.14528 15.2004 3.40728 15.2004 2.65128 15.2004C2.38128 15.2004 2.27328 15.0924 2.27328 14.8224C2.27328 12.9324 2.27328 8.99036 2.27328 8.93636Z" fill="#F9C747"/>
</svg>
