<svg width="16" height="16" viewBox="0 0 16 16" fill="none" xmlns="http://www.w3.org/2000/svg">
<path d="M15.2005 15.1995V9.92552C15.2005 7.33352 14.6425 5.35352 11.6185 5.35352C10.1605 5.35352 9.18853 6.14552 8.79253 6.90152H8.75653V5.58752H5.89453V15.1995H8.88253V10.4295C8.88253 9.16952 9.11653 7.96352 10.6645 7.96352C12.1945 7.96352 12.2125 9.38552 12.2125 10.5015V15.1815H15.2005V15.1995Z" fill="#F9C747"/>
<path d="M1.03516 5.58789H4.02316V15.1999H1.03516V5.58789Z" fill="#F9C747"/>
<path d="M2.52878 0.799805C1.57478 0.799805 0.800781 1.57381 0.800781 2.52781C0.800781 3.48181 1.57478 4.27381 2.52878 4.27381C3.48279 4.27381 4.25679 3.48181 4.25679 2.52781C4.25679 1.57381 3.48279 0.799805 2.52878 0.799805Z" fill="#F9C747"/>
</svg>
