<svg width="16" height="12" viewBox="0 0 16 12" fill="none" xmlns="http://www.w3.org/2000/svg">
<path d="M15.1813 1.53639C14.6413 1.77039 14.0833 1.93239 13.4893 2.00439C14.1013 1.64439 14.5693 1.06839 14.7853 0.366391C14.2093 0.708391 13.5793 0.942391 12.9133 1.08639C12.3733 0.510391 11.5993 0.150391 10.7533 0.150391C9.11526 0.150391 7.80126 1.48239 7.80126 3.10239C7.80126 3.33639 7.81926 3.55239 7.87326 3.76839C5.42525 3.66039 3.26525 2.47239 1.80725 0.690391C0.76325 2.56239 1.93325 4.11039 2.70725 4.63239C2.23925 4.63239 1.77125 4.48839 1.37525 4.27239C1.37525 5.73039 2.40125 6.93639 3.73325 7.20639C3.44525 7.29639 2.79725 7.35039 2.40125 7.26039C2.77925 8.43039 3.87725 9.29439 5.15525 9.31239C4.14725 10.1044 2.67125 10.7344 0.78125 10.5364C2.09525 11.3824 3.64325 11.8684 5.31725 11.8684C10.7533 11.8684 13.7053 7.36839 13.7053 3.48039C13.7053 3.35439 13.7053 3.22839 13.6873 3.10239C14.2993 2.65239 14.8033 2.13039 15.1813 1.53639Z" fill="#F9C747"/>
</svg>
